<svg xmlns="http://www.w3.org/2000/svg" xmlns:xlink="http://www.w3.org/1999/xlink" width="500" zoomAndPan="magnify" viewBox="0 0 375 374.999991" height="500" preserveAspectRatio="xMidYMid meet" version="1.0"><defs><g/><clipPath id="f0104cd343"><path d="M 37.5 127 L 93 127 L 93 246.808594 L 37.5 246.808594 Z M 37.5 127 " clip-rule="nonzero"/></clipPath></defs><g clip-path="url(#f0104cd343)"><path fill="#000000" d="M 146.773438 155.4375 L 133.558594 155.4375 L 137.910156 153.957031 C 138.355469 153.804688 138.785156 153.609375 139.195312 153.371094 C 139.601562 153.136719 139.984375 152.859375 140.339844 152.550781 C 140.695312 152.238281 141.015625 151.894531 141.304688 151.519531 C 141.589844 151.144531 141.839844 150.746094 142.046875 150.320312 C 142.257812 149.898438 142.421875 149.457031 142.542969 149 C 142.664062 148.542969 142.742188 148.082031 142.773438 147.609375 C 142.800781 147.140625 142.785156 146.667969 142.722656 146.203125 C 142.664062 145.734375 142.554688 145.277344 142.402344 144.828125 L 138.050781 132.113281 C 137.898438 131.667969 137.703125 131.238281 137.464844 130.828125 C 137.230469 130.417969 136.957031 130.039062 136.644531 129.683594 C 136.332031 129.328125 135.984375 129.003906 135.609375 128.71875 C 135.234375 128.429688 134.835938 128.183594 134.410156 127.972656 C 133.984375 127.765625 133.542969 127.601562 133.085938 127.480469 C 132.628906 127.355469 132.164062 127.28125 131.691406 127.25 C 131.21875 127.222656 130.746094 127.238281 130.277344 127.300781 C 129.808594 127.363281 129.347656 127.472656 128.902344 127.625 C 128.828125 127.648438 128.757812 127.679688 128.6875 127.714844 L 103.6875 140.171875 C 103.152344 139.960938 102.601562 139.855469 102.027344 139.851562 L 83.914062 139.851562 C 83.234375 139.855469 82.582031 140 81.964844 140.289062 L 56.730469 127.707031 C 56.660156 127.671875 56.589844 127.640625 56.515625 127.617188 C 56.066406 127.464844 55.609375 127.359375 55.140625 127.296875 C 54.671875 127.234375 54.199219 127.21875 53.730469 127.25 C 53.257812 127.28125 52.792969 127.355469 52.335938 127.476562 C 51.878906 127.597656 51.4375 127.765625 51.015625 127.972656 C 50.589844 128.179688 50.1875 128.425781 49.8125 128.714844 C 49.4375 129 49.09375 129.320312 48.78125 129.675781 C 48.46875 130.03125 48.195312 130.410156 47.957031 130.820312 C 47.71875 131.226562 47.523438 131.652344 47.371094 132.101562 L 43.015625 144.824219 C 42.863281 145.273438 42.753906 145.730469 42.691406 146.199219 C 42.628906 146.667969 42.613281 147.136719 42.644531 147.605469 C 42.675781 148.078125 42.75 148.542969 42.871094 149 C 42.996094 149.453125 43.160156 149.894531 43.367188 150.316406 C 43.578125 150.742188 43.824219 151.140625 44.113281 151.515625 C 44.398438 151.890625 44.722656 152.234375 45.078125 152.546875 C 45.433594 152.859375 45.8125 153.132812 46.222656 153.371094 C 46.632812 153.605469 47.0625 153.800781 47.507812 153.953125 L 51.859375 155.433594 L 39.226562 155.433594 C 39 155.433594 38.777344 155.476562 38.566406 155.5625 C 38.355469 155.652344 38.167969 155.777344 38.003906 155.9375 C 37.84375 156.101562 37.71875 156.289062 37.628906 156.5 C 37.542969 156.710938 37.5 156.933594 37.5 157.160156 L 37.5 181.191406 C 37.5 181.417969 37.542969 181.640625 37.632812 181.851562 C 37.71875 182.0625 37.84375 182.25 38.007812 182.410156 C 38.167969 182.570312 38.355469 182.695312 38.566406 182.785156 C 38.777344 182.871094 39 182.914062 39.226562 182.914062 L 41.964844 182.914062 L 41.964844 244.902344 C 41.964844 245.128906 42.007812 245.351562 42.09375 245.5625 C 42.183594 245.773438 42.308594 245.960938 42.46875 246.121094 C 42.632812 246.28125 42.820312 246.40625 43.03125 246.496094 C 43.242188 246.582031 43.460938 246.625 43.691406 246.625 L 142.308594 246.625 C 142.539062 246.625 142.757812 246.582031 142.96875 246.496094 C 143.179688 246.40625 143.367188 246.28125 143.53125 246.121094 C 143.691406 245.957031 143.816406 245.773438 143.90625 245.5625 C 143.992188 245.351562 144.035156 245.128906 144.035156 244.902344 L 144.035156 182.914062 L 146.773438 182.914062 C 147 182.914062 147.222656 182.871094 147.433594 182.785156 C 147.644531 182.695312 147.832031 182.570312 147.992188 182.410156 C 148.15625 182.25 148.28125 182.0625 148.367188 181.851562 C 148.457031 181.640625 148.5 181.417969 148.5 181.191406 L 148.5 157.160156 C 148.5 156.933594 148.457031 156.710938 148.367188 156.5 C 148.28125 156.289062 148.15625 156.101562 147.992188 155.941406 C 147.832031 155.78125 147.644531 155.65625 147.433594 155.566406 C 147.222656 155.480469 147 155.4375 146.773438 155.4375 Z M 130.117188 130.84375 C 130.585938 130.699219 131.0625 130.648438 131.546875 130.6875 C 132.035156 130.730469 132.496094 130.863281 132.929688 131.082031 C 133.363281 131.304688 133.742188 131.597656 134.0625 131.964844 C 134.382812 132.335938 134.621094 132.75 134.777344 133.210938 L 139.132812 145.933594 C 139.292969 146.40625 139.355469 146.886719 139.324219 147.382812 C 139.292969 147.875 139.164062 148.347656 138.945312 148.792969 C 138.726562 149.238281 138.429688 149.625 138.058594 149.953125 C 137.683594 150.277344 137.261719 150.523438 136.792969 150.683594 L 111.136719 159.429688 L 111.082031 159.449219 L 106.71875 160.933594 L 106.71875 152.8125 C 117.28125 145.898438 125.164062 143.515625 127.378906 146.636719 C 127.511719 146.824219 127.675781 146.976562 127.867188 147.097656 C 128.0625 147.21875 128.273438 147.300781 128.496094 147.339844 C 128.722656 147.375 128.949219 147.371094 129.171875 147.320312 C 129.394531 147.269531 129.601562 147.175781 129.785156 147.046875 C 129.972656 146.914062 130.128906 146.75 130.25 146.554688 C 130.371094 146.363281 130.453125 146.152344 130.492188 145.929688 C 130.53125 145.703125 130.523438 145.480469 130.472656 145.257812 C 130.421875 145.03125 130.332031 144.828125 130.199219 144.640625 C 125.992188 138.710938 115.605469 143.164062 106.71875 148.707031 L 106.71875 144.535156 C 106.71875 143.898438 106.59375 143.289062 106.34375 142.703125 Z M 124.675781 197.589844 L 117.503906 192.9375 C 117.28125 192.792969 117.039062 192.707031 116.773438 192.671875 C 116.507812 192.640625 116.25 192.667969 116 192.753906 C 115.746094 192.839844 115.527344 192.976562 115.339844 193.167969 C 115.152344 193.355469 115.015625 193.574219 114.925781 193.828125 L 112.3125 201.484375 C 109.902344 190.65625 106.046875 180.371094 100.746094 170.621094 L 102.027344 170.621094 C 102.335938 170.621094 102.640625 170.589844 102.941406 170.53125 C 103.246094 170.46875 103.539062 170.382812 103.824219 170.265625 C 104.105469 170.144531 104.375 170 104.632812 169.832031 C 104.890625 169.660156 105.125 169.464844 105.34375 169.25 C 105.5625 169.03125 105.753906 168.796875 105.925781 168.539062 C 106.097656 168.285156 106.242188 168.015625 106.359375 167.730469 C 106.476562 167.445312 106.566406 167.152344 106.628906 166.851562 C 106.6875 166.550781 106.71875 166.246094 106.71875 165.941406 L 106.71875 164.574219 L 110.925781 163.140625 C 116.917969 173.253906 121.589844 186.402344 124.675781 197.59375 Z M 73.460938 162.789062 L 79.222656 164.75 L 79.222656 165.941406 C 79.222656 166.519531 79.332031 167.078125 79.542969 167.621094 C 79.753906 168.160156 80.054688 168.644531 80.445312 169.070312 C 80.835938 169.5 81.292969 169.84375 81.8125 170.101562 C 82.332031 170.359375 82.878906 170.515625 83.457031 170.574219 C 78.140625 180.335938 74.277344 190.640625 71.867188 201.488281 L 69.257812 193.832031 C 69.171875 193.582031 69.035156 193.359375 68.847656 193.171875 C 68.660156 192.984375 68.441406 192.847656 68.191406 192.757812 C 67.9375 192.671875 67.679688 192.644531 67.414062 192.675781 C 67.152344 192.707031 66.90625 192.796875 66.683594 192.941406 L 59.5 197.597656 C 62.632812 186.21875 67.386719 172.921875 73.460938 162.789062 Z M 82.839844 179.464844 C 84.207031 176.4375 85.734375 173.488281 87.417969 170.621094 L 96.757812 170.621094 C 98.433594 173.492188 99.960938 176.4375 101.332031 179.464844 Z M 102.027344 143.300781 C 102.191406 143.300781 102.347656 143.332031 102.5 143.394531 C 102.648438 143.460938 102.785156 143.546875 102.898438 143.664062 C 103.015625 143.777344 103.105469 143.914062 103.167969 144.0625 C 103.230469 144.214844 103.261719 144.371094 103.261719 144.535156 L 103.261719 151.859375 C 103.261719 151.867188 103.261719 151.875 103.261719 151.886719 L 103.261719 165.941406 C 103.261719 166.101562 103.230469 166.261719 103.167969 166.410156 C 103.105469 166.5625 103.015625 166.695312 102.898438 166.8125 C 102.785156 166.925781 102.648438 167.015625 102.5 167.078125 C 102.347656 167.140625 102.191406 167.171875 102.027344 167.171875 L 83.914062 167.171875 C 83.75 167.171875 83.59375 167.140625 83.441406 167.078125 C 83.292969 167.015625 83.15625 166.925781 83.042969 166.8125 C 82.925781 166.695312 82.835938 166.5625 82.773438 166.410156 C 82.710938 166.261719 82.679688 166.101562 82.679688 165.941406 L 82.679688 144.535156 C 82.679688 144.371094 82.710938 144.214844 82.773438 144.0625 C 82.835938 143.910156 82.925781 143.777344 83.042969 143.664062 C 83.15625 143.546875 83.292969 143.457031 83.441406 143.394531 C 83.59375 143.332031 83.75 143.300781 83.914062 143.300781 Z M 46.289062 145.941406 L 50.644531 133.214844 C 50.800781 132.753906 51.042969 132.339844 51.359375 131.972656 C 51.679688 131.605469 52.058594 131.3125 52.492188 131.089844 C 52.925781 130.871094 53.386719 130.738281 53.875 130.695312 C 54.359375 130.65625 54.835938 130.707031 55.300781 130.851562 L 79.523438 142.925781 C 79.328125 143.445312 79.226562 143.980469 79.222656 144.535156 L 79.222656 148.707031 C 70.332031 143.160156 59.953125 138.710938 55.742188 144.644531 C 55.605469 144.828125 55.507812 145.035156 55.453125 145.261719 C 55.398438 145.484375 55.390625 145.710938 55.425781 145.941406 C 55.464844 146.167969 55.542969 146.382812 55.664062 146.578125 C 55.789062 146.777344 55.945312 146.941406 56.132812 147.074219 C 56.324219 147.207031 56.53125 147.300781 56.757812 147.351562 C 56.984375 147.402344 57.210938 147.40625 57.441406 147.363281 C 57.667969 147.324219 57.878906 147.238281 58.074219 147.113281 C 58.269531 146.984375 58.433594 146.828125 58.5625 146.636719 C 60.773438 143.519531 68.660156 145.894531 79.222656 152.808594 L 79.222656 161.101562 L 48.625 150.6875 C 48.15625 150.527344 47.734375 150.285156 47.359375 149.957031 C 46.988281 149.628906 46.691406 149.242188 46.472656 148.796875 C 46.253906 148.351562 46.128906 147.882812 46.097656 147.386719 C 46.066406 146.890625 46.128906 146.410156 46.289062 145.941406 Z M 40.957031 158.886719 L 61.992188 158.886719 L 70.109375 161.652344 C 66.847656 167.363281 64.070312 173.300781 61.78125 179.464844 L 40.957031 179.464844 Z M 45.421875 182.914062 L 60.5 182.914062 C 58.4375 188.6875 56.558594 194.910156 55.011719 201.054688 C 54.925781 201.398438 54.941406 201.738281 55.066406 202.070312 C 55.1875 202.402344 55.394531 202.671875 55.683594 202.878906 C 55.972656 203.085938 56.292969 203.191406 56.648438 203.199219 C 57.003906 203.207031 57.332031 203.113281 57.628906 202.921875 L 66.699219 197.042969 L 70.605469 208.511719 C 70.722656 208.863281 70.933594 209.144531 71.234375 209.359375 C 71.535156 209.574219 71.871094 209.683594 72.242188 209.683594 C 72.28125 209.683594 72.320312 209.683594 72.359375 209.683594 C 72.75 209.65625 73.089844 209.511719 73.386719 209.253906 C 73.679688 208.996094 73.863281 208.675781 73.9375 208.292969 C 75.339844 200.886719 77.335938 193.648438 79.925781 186.570312 L 79.925781 243.175781 L 45.421875 243.175781 Z M 83.382812 243.175781 L 83.382812 182.914062 L 102.617188 182.914062 L 102.617188 243.175781 Z M 140.578125 243.175781 L 106.074219 243.175781 L 106.074219 191.832031 C 107.78125 197.234375 109.167969 202.722656 110.234375 208.289062 C 110.308594 208.675781 110.492188 208.996094 110.789062 209.253906 C 111.082031 209.511719 111.421875 209.65625 111.816406 209.683594 C 111.855469 209.683594 111.894531 209.683594 111.933594 209.683594 C 112.304688 209.683594 112.636719 209.574219 112.9375 209.359375 C 113.238281 209.144531 113.449219 208.863281 113.566406 208.511719 L 117.484375 197.039062 L 126.542969 202.917969 C 126.839844 203.109375 127.167969 203.203125 127.523438 203.195312 C 127.878906 203.1875 128.199219 203.082031 128.488281 202.875 C 128.777344 202.667969 128.984375 202.398438 129.105469 202.066406 C 129.230469 201.734375 129.246094 201.394531 129.160156 201.050781 C 127.617188 194.90625 125.734375 188.683594 123.671875 182.914062 L 140.578125 182.914062 Z M 145.042969 179.464844 L 122.394531 179.464844 C 120.152344 173.425781 117.445312 167.605469 114.269531 162.003906 L 123.425781 158.886719 L 145.042969 158.886719 Z M 145.042969 179.464844 " fill-opacity="1" fill-rule="nonzero"/></g><g fill="#9ab0b5" fill-opacity="1"><g transform="translate(108.78306, 232.065628)"><g><path d="M 42.25 -40.78125 L 42.25 0 L 34.5 0 L 14.15625 -24.765625 L 14.15625 0 L 4.84375 0 L 4.84375 -40.78125 L 12.640625 -40.78125 L 32.921875 -16.015625 L 32.921875 -40.78125 Z M 42.25 -40.78125 "/></g></g></g><g fill="#9ab0b5" fill-opacity="1"><g transform="translate(150.146683, 232.065628)"><g><path d="M 16.84375 -31.8125 C 21.695312 -31.8125 25.421875 -30.65625 28.015625 -28.34375 C 30.617188 -26.03125 31.921875 -22.546875 31.921875 -17.890625 L 31.921875 0 L 23.421875 0 L 23.421875 -3.90625 C 21.710938 -0.988281 18.53125 0.46875 13.875 0.46875 C 11.457031 0.46875 9.363281 0.0625 7.59375 -0.75 C 5.832031 -1.570312 4.484375 -2.703125 3.546875 -4.140625 C 2.617188 -5.578125 2.15625 -7.207031 2.15625 -9.03125 C 2.15625 -11.945312 3.25 -14.238281 5.4375 -15.90625 C 7.632812 -17.570312 11.023438 -18.40625 15.609375 -18.40625 L 22.84375 -18.40625 C 22.84375 -20.394531 22.238281 -21.921875 21.03125 -22.984375 C 19.832031 -24.054688 18.023438 -24.59375 15.609375 -24.59375 C 13.941406 -24.59375 12.300781 -24.328125 10.6875 -23.796875 C 9.082031 -23.273438 7.710938 -22.566406 6.578125 -21.671875 L 3.328125 -28.03125 C 5.035156 -29.226562 7.082031 -30.15625 9.46875 -30.8125 C 11.851562 -31.476562 14.3125 -31.8125 16.84375 -31.8125 Z M 16.140625 -5.65625 C 17.691406 -5.65625 19.066406 -6.015625 20.265625 -6.734375 C 21.472656 -7.453125 22.332031 -8.507812 22.84375 -9.90625 L 22.84375 -13.109375 L 16.609375 -13.109375 C 12.878906 -13.109375 11.015625 -11.882812 11.015625 -9.4375 C 11.015625 -8.269531 11.46875 -7.347656 12.375 -6.671875 C 13.289062 -5.992188 14.546875 -5.65625 16.140625 -5.65625 Z M 16.140625 -5.65625 "/></g></g></g><g fill="#9ab0b5" fill-opacity="1"><g transform="translate(180.382706, 232.065628)"><g><path d="M 36.53125 -31.34375 L 36.53125 -5.25 C 36.53125 0.5 35.035156 4.769531 32.046875 7.5625 C 29.054688 10.363281 24.6875 11.765625 18.9375 11.765625 C 15.90625 11.765625 13.03125 11.394531 10.3125 10.65625 C 7.59375 9.925781 5.335938 8.859375 3.546875 7.453125 L 7.171875 0.9375 C 8.484375 2.019531 10.148438 2.878906 12.171875 3.515625 C 14.191406 4.160156 16.210938 4.484375 18.234375 4.484375 C 21.378906 4.484375 23.695312 3.773438 25.1875 2.359375 C 26.6875 0.941406 27.4375 -1.203125 27.4375 -4.078125 L 27.4375 -5.421875 C 25.070312 -2.816406 21.769531 -1.515625 17.53125 -1.515625 C 14.65625 -1.515625 12.023438 -2.144531 9.640625 -3.40625 C 7.253906 -4.664062 5.359375 -6.441406 3.953125 -8.734375 C 2.554688 -11.023438 1.859375 -13.664062 1.859375 -16.65625 C 1.859375 -19.65625 2.554688 -22.300781 3.953125 -24.59375 C 5.359375 -26.882812 7.253906 -28.660156 9.640625 -29.921875 C 12.023438 -31.179688 14.65625 -31.8125 17.53125 -31.8125 C 22.082031 -31.8125 25.539062 -30.316406 27.90625 -27.328125 L 27.90625 -31.34375 Z M 19.34375 -8.96875 C 21.75 -8.96875 23.71875 -9.675781 25.25 -11.09375 C 26.789062 -12.507812 27.5625 -14.363281 27.5625 -16.65625 C 27.5625 -18.957031 26.789062 -20.816406 25.25 -22.234375 C 23.71875 -23.648438 21.75 -24.359375 19.34375 -24.359375 C 16.9375 -24.359375 14.957031 -23.648438 13.40625 -22.234375 C 11.851562 -20.816406 11.078125 -18.957031 11.078125 -16.65625 C 11.078125 -14.363281 11.851562 -12.507812 13.40625 -11.09375 C 14.957031 -9.675781 16.9375 -8.96875 19.34375 -8.96875 Z M 19.34375 -8.96875 "/></g></g></g><g fill="#9ab0b5" fill-opacity="1"><g transform="translate(215.454287, 232.065628)"><g><path d="M 12.875 -27.203125 C 13.96875 -28.722656 15.4375 -29.867188 17.28125 -30.640625 C 19.125 -31.421875 21.25 -31.8125 23.65625 -31.8125 L 23.65625 -23.421875 C 22.644531 -23.503906 21.960938 -23.546875 21.609375 -23.546875 C 19.015625 -23.546875 16.976562 -22.816406 15.5 -21.359375 C 14.019531 -19.898438 13.28125 -17.710938 13.28125 -14.796875 L 13.28125 0 L 4.1875 0 L 4.1875 -31.34375 L 12.875 -31.34375 Z M 12.875 -27.203125 "/></g></g></g><g fill="#9ab0b5" fill-opacity="1"><g transform="translate(234.853995, 232.065628)"><g><path d="M 19.109375 0.46875 C 15.804688 0.46875 12.84375 -0.21875 10.21875 -1.59375 C 7.601562 -2.976562 5.554688 -4.894531 4.078125 -7.34375 C 2.597656 -9.789062 1.859375 -12.566406 1.859375 -15.671875 C 1.859375 -18.773438 2.597656 -21.550781 4.078125 -24 C 5.554688 -26.445312 7.601562 -28.359375 10.21875 -29.734375 C 12.84375 -31.117188 15.804688 -31.8125 19.109375 -31.8125 C 22.410156 -31.8125 25.363281 -31.117188 27.96875 -29.734375 C 30.570312 -28.359375 32.609375 -26.445312 34.078125 -24 C 35.554688 -21.550781 36.296875 -18.773438 36.296875 -15.671875 C 36.296875 -12.566406 35.554688 -9.789062 34.078125 -7.34375 C 32.609375 -4.894531 30.570312 -2.976562 27.96875 -1.59375 C 25.363281 -0.21875 22.410156 0.46875 19.109375 0.46875 Z M 19.109375 -6.984375 C 21.441406 -6.984375 23.351562 -7.769531 24.84375 -9.34375 C 26.34375 -10.925781 27.09375 -13.035156 27.09375 -15.671875 C 27.09375 -18.316406 26.34375 -20.425781 24.84375 -22 C 23.351562 -23.570312 21.441406 -24.359375 19.109375 -24.359375 C 16.773438 -24.359375 14.851562 -23.570312 13.34375 -22 C 11.832031 -20.425781 11.078125 -18.316406 11.078125 -15.671875 C 11.078125 -13.035156 11.832031 -10.925781 13.34375 -9.34375 C 14.851562 -7.769531 16.773438 -6.984375 19.109375 -6.984375 Z M 19.109375 -6.984375 "/></g></g></g><g fill="#9ab0b5" fill-opacity="1"><g transform="translate(267.303886, 232.065628)"><g><path d="M 36.125 -43.234375 L 36.125 0 L 27.4375 0 L 27.4375 -3.609375 C 25.1875 -0.890625 21.925781 0.46875 17.65625 0.46875 C 14.695312 0.46875 12.023438 -0.191406 9.640625 -1.515625 C 7.253906 -2.835938 5.378906 -4.722656 4.015625 -7.171875 C 2.660156 -9.617188 1.984375 -12.453125 1.984375 -15.671875 C 1.984375 -18.898438 2.660156 -21.734375 4.015625 -24.171875 C 5.378906 -26.617188 7.253906 -28.503906 9.640625 -29.828125 C 12.023438 -31.148438 14.695312 -31.8125 17.65625 -31.8125 C 21.65625 -31.8125 24.78125 -30.550781 27.03125 -28.03125 L 27.03125 -43.234375 Z M 19.234375 -6.984375 C 21.523438 -6.984375 23.425781 -7.769531 24.9375 -9.34375 C 26.445312 -10.925781 27.203125 -13.035156 27.203125 -15.671875 C 27.203125 -18.316406 26.445312 -20.425781 24.9375 -22 C 23.425781 -23.570312 21.523438 -24.359375 19.234375 -24.359375 C 16.898438 -24.359375 14.972656 -23.570312 13.453125 -22 C 11.941406 -20.425781 11.1875 -18.316406 11.1875 -15.671875 C 11.1875 -13.035156 11.941406 -10.925781 13.453125 -9.34375 C 14.972656 -7.769531 16.898438 -6.984375 19.234375 -6.984375 Z M 19.234375 -6.984375 "/></g></g></g><g fill="#9ab0b5" fill-opacity="1"><g transform="translate(301.909368, 232.065628)"><g><path d="M 34.90625 -15.5625 C 34.90625 -15.4375 34.84375 -14.617188 34.71875 -13.109375 L 11.015625 -13.109375 C 11.441406 -11.171875 12.453125 -9.632812 14.046875 -8.5 C 15.640625 -7.375 17.617188 -6.8125 19.984375 -6.8125 C 21.617188 -6.8125 23.066406 -7.054688 24.328125 -7.546875 C 25.585938 -8.035156 26.757812 -8.800781 27.84375 -9.84375 L 32.75 -4.609375 C 31.96875 -3.785156 31.171875 -3.082031 30.359375 -2.5 C 27.910156 -0.71875 26.21875 0.832031 25.28125 2.15625 C 24.351562 3.476562 23.890625 4.738281 23.890625 5.9375 C 23.890625 6.875 24.1875 7.601562 24.78125 8.125 C 25.382812 8.65625 26.210938 8.921875 27.265625 8.921875 C 28.515625 8.921875 29.660156 8.628906 30.703125 8.046875 L 32.046875 12.171875 C 31.304688 12.566406 30.398438 12.890625 29.328125 13.140625 C 28.265625 13.390625 27.207031 13.515625 26.15625 13.515625 C 23.675781 13.515625 21.71875 12.898438 20.28125 11.671875 C 18.84375 10.453125 18.125 8.816406 18.125 6.765625 C 18.125 5.671875 18.363281 4.570312 18.84375 3.46875 C 19.332031 2.363281 20.039062 1.34375 20.96875 0.40625 C 20.695312 0.445312 20.289062 0.46875 19.75 0.46875 C 16.21875 0.46875 13.09375 -0.21875 10.375 -1.59375 C 7.65625 -2.976562 5.554688 -4.894531 4.078125 -7.34375 C 2.597656 -9.789062 1.859375 -12.566406 1.859375 -15.671875 C 1.859375 -18.742188 2.585938 -21.507812 4.046875 -23.96875 C 5.503906 -26.4375 7.503906 -28.359375 10.046875 -29.734375 C 12.597656 -31.117188 15.445312 -31.8125 18.59375 -31.8125 C 21.65625 -31.8125 24.425781 -31.148438 26.90625 -29.828125 C 29.394531 -28.503906 31.347656 -26.609375 32.765625 -24.140625 C 34.191406 -21.679688 34.90625 -18.820312 34.90625 -15.5625 Z M 18.640625 -24.9375 C 16.585938 -24.9375 14.859375 -24.351562 13.453125 -23.1875 C 12.054688 -22.019531 11.203125 -20.425781 10.890625 -18.40625 L 26.34375 -18.40625 C 26.03125 -20.394531 25.171875 -21.976562 23.765625 -23.15625 C 22.367188 -24.34375 20.660156 -24.9375 18.640625 -24.9375 Z M 18.640625 -24.9375 "/></g></g></g><g fill="#7783bc" fill-opacity="1"><g transform="translate(108.78306, 178.499852)"><g><path d="M 24.46875 0.34375 C 20.425781 0.34375 16.765625 -0.554688 13.484375 -2.359375 C 10.203125 -4.160156 7.640625 -6.632812 5.796875 -9.78125 C 3.953125 -12.9375 3.03125 -16.472656 3.03125 -20.390625 C 3.03125 -24.316406 3.953125 -27.851562 5.796875 -31 C 7.640625 -34.144531 10.203125 -36.617188 13.484375 -38.421875 C 16.765625 -40.234375 20.425781 -41.140625 24.46875 -41.140625 C 28.507812 -41.140625 32.148438 -40.242188 35.390625 -38.453125 C 38.640625 -36.671875 41.195312 -34.195312 43.0625 -31.03125 C 44.925781 -27.863281 45.859375 -24.316406 45.859375 -20.390625 C 45.859375 -16.472656 44.925781 -12.929688 43.0625 -9.765625 C 41.195312 -6.597656 38.640625 -4.117188 35.390625 -2.328125 C 32.148438 -0.546875 28.507812 0.34375 24.46875 0.34375 Z M 24.46875 -3.5 C 27.695312 -3.5 30.609375 -4.222656 33.203125 -5.671875 C 35.804688 -7.128906 37.847656 -9.148438 39.328125 -11.734375 C 40.804688 -14.316406 41.546875 -17.203125 41.546875 -20.390625 C 41.546875 -23.578125 40.804688 -26.460938 39.328125 -29.046875 C 37.847656 -31.628906 35.804688 -33.648438 33.203125 -35.109375 C 30.609375 -36.566406 27.695312 -37.296875 24.46875 -37.296875 C 21.25 -37.296875 18.328125 -36.566406 15.703125 -35.109375 C 13.078125 -33.648438 11.015625 -31.628906 9.515625 -29.046875 C 8.023438 -26.460938 7.28125 -23.578125 7.28125 -20.390625 C 7.28125 -17.203125 8.023438 -14.316406 9.515625 -11.734375 C 11.015625 -9.148438 13.078125 -7.128906 15.703125 -5.671875 C 18.328125 -4.222656 21.25 -3.5 24.46875 -3.5 Z M 24.46875 -3.5 "/></g></g></g><g fill="#7783bc" fill-opacity="1"><g transform="translate(151.959165, 178.499852)"><g><path d="M 33.734375 -43.234375 L 33.734375 0 L 29.78125 0 L 29.78125 -6.0625 C 28.53125 -4 26.882812 -2.421875 24.84375 -1.328125 C 22.8125 -0.242188 20.515625 0.296875 17.953125 0.296875 C 15.078125 0.296875 12.472656 -0.363281 10.140625 -1.6875 C 7.804688 -3.007812 5.976562 -4.851562 4.65625 -7.21875 C 3.34375 -9.59375 2.6875 -12.296875 2.6875 -15.328125 C 2.6875 -18.359375 3.34375 -21.054688 4.65625 -23.421875 C 5.976562 -25.796875 7.804688 -27.628906 10.140625 -28.921875 C 12.472656 -30.222656 15.078125 -30.875 17.953125 -30.875 C 20.429688 -30.875 22.671875 -30.359375 24.671875 -29.328125 C 26.671875 -28.304688 28.3125 -26.804688 29.59375 -24.828125 L 29.59375 -43.234375 Z M 18.296875 -3.375 C 20.429688 -3.375 22.363281 -3.867188 24.09375 -4.859375 C 25.820312 -5.847656 27.179688 -7.253906 28.171875 -9.078125 C 29.160156 -10.910156 29.65625 -12.992188 29.65625 -15.328125 C 29.65625 -17.648438 29.160156 -19.722656 28.171875 -21.546875 C 27.179688 -23.378906 25.820312 -24.789062 24.09375 -25.78125 C 22.363281 -26.769531 20.429688 -27.265625 18.296875 -27.265625 C 16.117188 -27.265625 14.164062 -26.769531 12.4375 -25.78125 C 10.707031 -24.789062 9.347656 -23.378906 8.359375 -21.546875 C 7.367188 -19.722656 6.875 -17.648438 6.875 -15.328125 C 6.875 -12.992188 7.367188 -10.910156 8.359375 -9.078125 C 9.347656 -7.253906 10.707031 -5.847656 12.4375 -4.859375 C 14.164062 -3.867188 16.117188 -3.375 18.296875 -3.375 Z M 18.296875 -3.375 "/></g></g></g><g fill="#7783bc" fill-opacity="1"><g transform="translate(185.754238, 178.499852)"><g><path d="M 21.5625 -30.875 C 24.4375 -30.875 27.035156 -30.222656 29.359375 -28.921875 C 31.691406 -27.628906 33.519531 -25.796875 34.84375 -23.421875 C 36.164062 -21.054688 36.828125 -18.359375 36.828125 -15.328125 C 36.828125 -12.296875 36.164062 -9.59375 34.84375 -7.21875 C 33.519531 -4.851562 31.691406 -3.007812 29.359375 -1.6875 C 27.035156 -0.363281 24.4375 0.296875 21.5625 0.296875 C 19 0.296875 16.695312 -0.242188 14.65625 -1.328125 C 12.613281 -2.421875 10.972656 -4 9.734375 -6.0625 L 9.734375 0 L 5.765625 0 L 5.765625 -43.234375 L 9.90625 -43.234375 L 9.90625 -24.828125 C 11.1875 -26.804688 12.828125 -28.304688 14.828125 -29.328125 C 16.828125 -30.359375 19.070312 -30.875 21.5625 -30.875 Z M 21.265625 -3.375 C 23.398438 -3.375 25.34375 -3.867188 27.09375 -4.859375 C 28.84375 -5.847656 30.210938 -7.253906 31.203125 -9.078125 C 32.191406 -10.910156 32.6875 -12.992188 32.6875 -15.328125 C 32.6875 -17.648438 32.191406 -19.722656 31.203125 -21.546875 C 30.210938 -23.378906 28.84375 -24.789062 27.09375 -25.78125 C 25.34375 -26.769531 23.398438 -27.265625 21.265625 -27.265625 C 19.085938 -27.265625 17.132812 -26.769531 15.40625 -25.78125 C 13.675781 -24.789062 12.316406 -23.378906 11.328125 -21.546875 C 10.335938 -19.722656 9.84375 -17.648438 9.84375 -15.328125 C 9.84375 -12.992188 10.335938 -10.910156 11.328125 -9.078125 C 12.316406 -7.253906 13.675781 -5.847656 15.40625 -4.859375 C 17.132812 -3.867188 19.085938 -3.375 21.265625 -3.375 Z M 21.265625 -3.375 "/></g></g></g><g fill="#7783bc" fill-opacity="1"><g transform="translate(219.549306, 178.499852)"><g><path d="M 5.765625 -30.640625 L 9.90625 -30.640625 L 9.90625 0 L 5.765625 0 Z M 7.859375 -37.34375 C 7.003906 -37.34375 6.285156 -37.632812 5.703125 -38.21875 C 5.117188 -38.800781 4.828125 -39.5 4.828125 -40.3125 C 4.828125 -41.09375 5.117188 -41.773438 5.703125 -42.359375 C 6.285156 -42.941406 7.003906 -43.234375 7.859375 -43.234375 C 8.710938 -43.234375 9.429688 -42.953125 10.015625 -42.390625 C 10.597656 -41.828125 10.890625 -41.15625 10.890625 -40.375 C 10.890625 -39.519531 10.597656 -38.800781 10.015625 -38.21875 C 9.429688 -37.632812 8.710938 -37.34375 7.859375 -37.34375 Z M 7.859375 -37.34375 "/></g></g></g><g fill="#7783bc" fill-opacity="1"><g transform="translate(229.513, 178.499852)"><g><path d="M 32.453125 -14.046875 L 6.8125 -14.046875 C 7.050781 -10.859375 8.273438 -8.28125 10.484375 -6.3125 C 12.703125 -4.351562 15.5 -3.375 18.875 -3.375 C 20.78125 -3.375 22.53125 -3.710938 24.125 -4.390625 C 25.71875 -5.078125 27.097656 -6.082031 28.265625 -7.40625 L 30.59375 -4.71875 C 29.226562 -3.082031 27.523438 -1.835938 25.484375 -0.984375 C 23.453125 -0.128906 21.210938 0.296875 18.765625 0.296875 C 15.617188 0.296875 12.832031 -0.375 10.40625 -1.71875 C 7.976562 -3.0625 6.082031 -4.914062 4.71875 -7.28125 C 3.363281 -9.65625 2.6875 -12.335938 2.6875 -15.328125 C 2.6875 -18.316406 3.332031 -20.992188 4.625 -23.359375 C 5.925781 -25.734375 7.710938 -27.578125 9.984375 -28.890625 C 12.265625 -30.210938 14.820312 -30.875 17.65625 -30.875 C 20.488281 -30.875 23.03125 -30.210938 25.28125 -28.890625 C 27.539062 -27.578125 29.3125 -25.742188 30.59375 -23.390625 C 31.875 -21.046875 32.515625 -18.359375 32.515625 -15.328125 Z M 17.65625 -27.328125 C 14.695312 -27.328125 12.21875 -26.382812 10.21875 -24.5 C 8.21875 -22.613281 7.082031 -20.15625 6.8125 -17.125 L 28.546875 -17.125 C 28.273438 -20.15625 27.140625 -22.613281 25.140625 -24.5 C 23.140625 -26.382812 20.644531 -27.328125 17.65625 -27.328125 Z M 17.65625 -27.328125 "/></g></g></g><g fill="#7783bc" fill-opacity="1"><g transform="translate(258.996268, 178.499852)"><g><path d="M 9.734375 -24.640625 C 10.703125 -26.703125 12.144531 -28.253906 14.0625 -29.296875 C 15.988281 -30.347656 18.367188 -30.875 21.203125 -30.875 L 21.203125 -26.859375 L 20.21875 -26.921875 C 16.988281 -26.921875 14.460938 -25.925781 12.640625 -23.9375 C 10.816406 -21.957031 9.90625 -19.179688 9.90625 -15.609375 L 9.90625 0 L 5.765625 0 L 5.765625 -30.640625 L 9.734375 -30.640625 Z M 9.734375 -24.640625 "/></g></g></g><g fill="#7783bc" fill-opacity="1"><g transform="translate(276.651285, 178.499852)"><g><path d="M 27.390625 -3.4375 L 27.390625 0 L 2.453125 0 L 2.453125 -2.734375 L 21.734375 -27.15625 L 2.796875 -27.15625 L 2.796875 -30.640625 L 27.03125 -30.640625 L 27.03125 -27.90625 L 7.75 -3.4375 Z M 27.390625 -3.4375 "/></g></g></g><path stroke-linecap="butt" transform="matrix(0, -0.75, 0.75, 0, 104.279251, 247.459846)" fill="none" stroke-linejoin="miter" d="M -0.00145513 2.997457 L 162.821472 2.997457 " stroke="#000000" stroke-width="6" stroke-opacity="1" stroke-miterlimit="4"/></svg>