<svg xmlns="http://www.w3.org/2000/svg" xmlns:xlink="http://www.w3.org/1999/xlink" width="500" zoomAndPan="magnify" viewBox="0 0 375 374.999991" height="500" preserveAspectRatio="xMidYMid meet" version="1.0"><defs><g/><clipPath id="3ba91264c5"><path d="M 37.5 127 L 93 127 L 93 246.808594 L 37.5 246.808594 Z M 37.5 127 " clip-rule="nonzero"/></clipPath></defs><g clip-path="url(#3ba91264c5)"><path fill="#d696bc" d="M 146.507812 155.421875 L 133.324219 155.421875 L 137.664062 153.945312 C 138.113281 153.792969 138.539062 153.597656 138.949219 153.359375 C 139.355469 153.121094 139.738281 152.847656 140.089844 152.535156 C 140.445312 152.222656 140.765625 151.882812 141.050781 151.507812 C 141.339844 151.132812 141.585938 150.730469 141.792969 150.308594 C 142 149.886719 142.167969 149.445312 142.289062 148.988281 C 142.410156 148.535156 142.484375 148.070312 142.515625 147.597656 C 142.546875 147.128906 142.53125 146.660156 142.46875 146.191406 C 142.40625 145.722656 142.300781 145.265625 142.148438 144.820312 L 137.804688 132.113281 C 137.652344 131.664062 137.460938 131.234375 137.222656 130.828125 C 136.988281 130.417969 136.714844 130.035156 136.402344 129.679688 C 136.089844 129.324219 135.746094 129.003906 135.371094 128.71875 C 134.996094 128.429688 134.597656 128.183594 134.171875 127.972656 C 133.75 127.765625 133.308594 127.601562 132.851562 127.476562 C 132.398438 127.355469 131.933594 127.28125 131.460938 127.25 C 130.988281 127.222656 130.519531 127.238281 130.050781 127.300781 C 129.582031 127.363281 129.125 127.46875 128.679688 127.621094 C 128.605469 127.648438 128.535156 127.675781 128.464844 127.710938 L 103.527344 140.164062 C 102.996094 139.957031 102.441406 139.851562 101.871094 139.847656 L 83.800781 139.847656 C 83.121094 139.847656 82.472656 139.992188 81.859375 140.28125 L 56.683594 127.703125 C 56.613281 127.667969 56.542969 127.640625 56.46875 127.613281 C 56.023438 127.464844 55.566406 127.355469 55.097656 127.296875 C 54.628906 127.234375 54.160156 127.21875 53.691406 127.25 C 53.21875 127.277344 52.753906 127.355469 52.300781 127.476562 C 51.84375 127.597656 51.40625 127.761719 50.980469 127.972656 C 50.558594 128.179688 50.160156 128.425781 49.785156 128.714844 C 49.410156 129 49.066406 129.320312 48.753906 129.671875 C 48.441406 130.027344 48.167969 130.410156 47.929688 130.816406 C 47.695312 131.222656 47.5 131.652344 47.34375 132.097656 L 43 144.816406 C 42.847656 145.261719 42.742188 145.722656 42.679688 146.1875 C 42.617188 146.65625 42.601562 147.125 42.632812 147.597656 C 42.664062 148.066406 42.738281 148.53125 42.859375 148.988281 C 42.980469 149.441406 43.144531 149.882812 43.355469 150.304688 C 43.5625 150.730469 43.808594 151.128906 44.097656 151.503906 C 44.382812 151.878906 44.703125 152.222656 45.058594 152.535156 C 45.414062 152.84375 45.792969 153.121094 46.203125 153.355469 C 46.609375 153.59375 47.039062 153.789062 47.484375 153.941406 L 51.824219 155.417969 L 39.222656 155.417969 C 38.996094 155.417969 38.773438 155.460938 38.5625 155.550781 C 38.351562 155.636719 38.164062 155.761719 38.003906 155.925781 C 37.839844 156.085938 37.71875 156.273438 37.628906 156.484375 C 37.542969 156.695312 37.5 156.917969 37.5 157.144531 L 37.5 181.164062 C 37.5 181.390625 37.542969 181.613281 37.632812 181.824219 C 37.71875 182.035156 37.84375 182.222656 38.003906 182.382812 C 38.167969 182.542969 38.351562 182.667969 38.5625 182.757812 C 38.777344 182.84375 38.996094 182.886719 39.222656 182.886719 L 41.953125 182.886719 L 41.953125 244.84375 C 41.953125 245.070312 41.996094 245.292969 42.085938 245.503906 C 42.171875 245.714844 42.296875 245.902344 42.457031 246.0625 C 42.621094 246.222656 42.804688 246.347656 43.015625 246.4375 C 43.226562 246.523438 43.449219 246.566406 43.675781 246.566406 L 142.054688 246.566406 C 142.28125 246.566406 142.503906 246.523438 142.714844 246.4375 C 142.925781 246.347656 143.109375 246.222656 143.273438 246.0625 C 143.433594 245.902344 143.558594 245.714844 143.644531 245.503906 C 143.734375 245.292969 143.777344 245.070312 143.777344 244.84375 L 143.777344 182.886719 L 146.507812 182.886719 C 146.734375 182.886719 146.953125 182.84375 147.167969 182.757812 C 147.378906 182.667969 147.5625 182.542969 147.726562 182.382812 C 147.886719 182.222656 148.011719 182.035156 148.097656 181.824219 C 148.1875 181.613281 148.230469 181.390625 148.230469 181.164062 L 148.230469 157.144531 C 148.230469 156.917969 148.1875 156.699219 148.097656 156.484375 C 148.011719 156.273438 147.886719 156.089844 147.726562 155.925781 C 147.5625 155.765625 147.378906 155.640625 147.167969 155.554688 C 146.957031 155.464844 146.734375 155.421875 146.507812 155.421875 Z M 129.894531 130.84375 C 130.359375 130.699219 130.835938 130.644531 131.320312 130.6875 C 131.804688 130.726562 132.265625 130.859375 132.699219 131.078125 C 133.132812 131.300781 133.507812 131.59375 133.828125 131.964844 C 134.144531 132.332031 134.382812 132.746094 134.539062 133.207031 L 138.886719 145.925781 C 139.042969 146.394531 139.109375 146.875 139.078125 147.371094 C 139.042969 147.867188 138.917969 148.335938 138.699219 148.78125 C 138.480469 149.226562 138.1875 149.613281 137.8125 149.941406 C 137.441406 150.265625 137.019531 150.511719 136.550781 150.671875 L 110.957031 159.410156 L 110.902344 159.429688 L 106.550781 160.917969 L 106.550781 152.796875 C 117.085938 145.886719 124.949219 143.507812 127.160156 146.625 C 127.292969 146.8125 127.457031 146.964844 127.648438 147.089844 C 127.84375 147.210938 128.050781 147.289062 128.277344 147.328125 C 128.503906 147.367188 128.726562 147.359375 128.949219 147.308594 C 129.171875 147.257812 129.375 147.167969 129.5625 147.035156 C 129.75 146.902344 129.902344 146.738281 130.023438 146.546875 C 130.148438 146.351562 130.226562 146.144531 130.265625 145.917969 C 130.304688 145.695312 130.296875 145.46875 130.246094 145.246094 C 130.195312 145.023438 130.105469 144.820312 129.972656 144.632812 C 125.777344 138.703125 115.417969 143.15625 106.550781 148.695312 L 106.550781 144.523438 C 106.550781 143.890625 106.425781 143.28125 106.175781 142.695312 Z M 124.464844 197.554688 L 117.3125 192.90625 C 117.089844 192.761719 116.84375 192.671875 116.582031 192.640625 C 116.316406 192.609375 116.058594 192.636719 115.808594 192.722656 C 115.558594 192.808594 115.335938 192.945312 115.148438 193.132812 C 114.960938 193.320312 114.824219 193.542969 114.738281 193.792969 L 112.132812 201.449219 C 109.726562 190.625 105.878906 180.34375 100.589844 170.601562 L 101.871094 170.601562 C 102.179688 170.601562 102.484375 170.570312 102.785156 170.507812 C 103.085938 170.449219 103.378906 170.359375 103.660156 170.242188 C 103.945312 170.125 104.214844 169.980469 104.46875 169.808594 C 104.726562 169.640625 104.960938 169.445312 105.179688 169.226562 C 105.394531 169.011719 105.589844 168.773438 105.761719 168.519531 C 105.929688 168.261719 106.074219 167.992188 106.191406 167.710938 C 106.3125 167.425781 106.398438 167.132812 106.460938 166.832031 C 106.519531 166.53125 106.550781 166.226562 106.550781 165.921875 L 106.550781 164.554688 L 110.75 163.125 C 116.722656 173.230469 121.386719 186.371094 124.464844 197.558594 Z M 73.371094 162.773438 L 79.121094 164.734375 L 79.121094 165.921875 C 79.121094 166.5 79.230469 167.058594 79.4375 167.597656 C 79.648438 168.140625 79.949219 168.621094 80.339844 169.050781 C 80.730469 169.476562 81.1875 169.820312 81.703125 170.082031 C 82.222656 170.339844 82.769531 170.496094 83.347656 170.550781 C 78.042969 180.308594 74.1875 190.609375 71.78125 201.449219 L 69.183594 193.800781 C 69.097656 193.546875 68.960938 193.328125 68.773438 193.140625 C 68.585938 192.953125 68.367188 192.8125 68.113281 192.726562 C 67.863281 192.640625 67.605469 192.613281 67.34375 192.644531 C 67.078125 192.675781 66.835938 192.765625 66.613281 192.910156 L 59.445312 197.5625 C 62.570312 186.191406 67.316406 172.898438 73.371094 162.773438 Z M 82.730469 179.441406 C 84.09375 176.410156 85.617188 173.464844 87.296875 170.601562 L 96.613281 170.601562 C 98.285156 173.46875 99.808594 176.414062 101.179688 179.441406 Z M 101.871094 143.292969 C 102.035156 143.292969 102.191406 143.324219 102.339844 143.386719 C 102.492188 143.449219 102.625 143.539062 102.742188 143.65625 C 102.855469 143.769531 102.945312 143.902344 103.007812 144.054688 C 103.070312 144.203125 103.101562 144.363281 103.101562 144.523438 L 103.101562 151.847656 C 103.101562 151.855469 103.101562 151.863281 103.101562 151.875 L 103.101562 165.921875 C 103.101562 166.082031 103.070312 166.242188 103.007812 166.390625 C 102.945312 166.542969 102.855469 166.675781 102.742188 166.789062 C 102.625 166.90625 102.492188 166.996094 102.339844 167.058594 C 102.191406 167.121094 102.035156 167.152344 101.871094 167.152344 L 83.800781 167.152344 C 83.636719 167.152344 83.480469 167.121094 83.332031 167.058594 C 83.179688 166.996094 83.046875 166.90625 82.929688 166.792969 C 82.816406 166.675781 82.726562 166.542969 82.664062 166.390625 C 82.601562 166.242188 82.570312 166.082031 82.570312 165.921875 L 82.570312 144.523438 C 82.570312 144.363281 82.601562 144.203125 82.664062 144.054688 C 82.726562 143.902344 82.816406 143.769531 82.929688 143.65625 C 83.046875 143.539062 83.179688 143.449219 83.332031 143.386719 C 83.480469 143.324219 83.636719 143.292969 83.800781 143.292969 Z M 46.269531 145.929688 L 50.613281 133.210938 C 50.769531 132.75 51.007812 132.335938 51.328125 131.96875 C 51.644531 131.601562 52.023438 131.308594 52.457031 131.085938 C 52.890625 130.867188 53.347656 130.734375 53.835938 130.695312 C 54.320312 130.652344 54.792969 130.703125 55.257812 130.847656 L 79.421875 142.917969 C 79.226562 143.4375 79.125 143.972656 79.121094 144.523438 L 79.121094 148.695312 C 70.253906 143.148438 59.898438 138.703125 55.699219 144.632812 C 55.558594 144.820312 55.464844 145.027344 55.410156 145.25 C 55.355469 145.476562 55.347656 145.703125 55.382812 145.929688 C 55.417969 146.160156 55.5 146.371094 55.621094 146.570312 C 55.742188 146.765625 55.898438 146.929688 56.089844 147.0625 C 56.277344 147.199219 56.484375 147.289062 56.710938 147.339844 C 56.9375 147.390625 57.164062 147.394531 57.390625 147.355469 C 57.621094 147.3125 57.832031 147.230469 58.023438 147.101562 C 58.21875 146.976562 58.382812 146.816406 58.511719 146.625 C 60.71875 143.511719 68.582031 145.886719 79.121094 152.796875 L 79.121094 161.085938 L 48.597656 150.675781 C 48.128906 150.515625 47.707031 150.273438 47.335938 149.945312 C 46.964844 149.617188 46.667969 149.230469 46.453125 148.785156 C 46.234375 148.339844 46.109375 147.871094 46.078125 147.375 C 46.042969 146.882812 46.109375 146.398438 46.269531 145.929688 Z M 40.949219 158.871094 L 61.929688 158.871094 L 70.03125 161.632812 C 66.777344 167.34375 64.007812 173.277344 61.722656 179.441406 L 40.949219 179.441406 Z M 45.402344 182.886719 L 60.445312 182.886719 C 58.386719 188.65625 56.511719 194.878906 54.96875 201.019531 C 54.882812 201.363281 54.902344 201.699219 55.023438 202.03125 C 55.144531 202.367188 55.351562 202.636719 55.640625 202.839844 C 55.925781 203.046875 56.25 203.152344 56.601562 203.160156 C 56.957031 203.167969 57.28125 203.078125 57.582031 202.882812 L 66.628906 197.007812 L 70.523438 208.472656 C 70.644531 208.820312 70.851562 209.105469 71.152344 209.320312 C 71.453125 209.535156 71.789062 209.640625 72.15625 209.640625 C 72.195312 209.640625 72.234375 209.640625 72.273438 209.640625 C 72.664062 209.613281 73.003906 209.472656 73.296875 209.214844 C 73.589844 208.957031 73.773438 208.632812 73.851562 208.25 C 75.25 200.851562 77.238281 193.613281 79.820312 186.539062 L 79.820312 243.121094 L 45.402344 243.121094 Z M 83.269531 243.121094 L 83.269531 182.886719 L 102.460938 182.886719 L 102.460938 243.121094 Z M 140.328125 243.121094 L 105.910156 243.121094 L 105.910156 191.796875 C 107.613281 197.203125 108.996094 202.683594 110.058594 208.25 C 110.132812 208.632812 110.316406 208.957031 110.609375 209.214844 C 110.902344 209.472656 111.246094 209.613281 111.632812 209.640625 C 111.671875 209.640625 111.714844 209.640625 111.753906 209.640625 C 112.121094 209.640625 112.457031 209.535156 112.753906 209.320312 C 113.054688 209.101562 113.261719 208.820312 113.382812 208.472656 L 117.289062 197.003906 L 126.328125 202.878906 C 126.625 203.074219 126.949219 203.164062 127.304688 203.15625 C 127.660156 203.148438 127.980469 203.042969 128.269531 202.835938 C 128.554688 202.628906 128.761719 202.363281 128.882812 202.027344 C 129.007812 201.695312 129.023438 201.359375 128.9375 201.015625 C 127.398438 194.871094 125.519531 188.652344 123.464844 182.886719 L 140.328125 182.886719 Z M 144.78125 179.441406 L 122.1875 179.441406 C 119.953125 173.40625 117.253906 167.585938 114.082031 161.984375 L 123.214844 158.871094 L 144.78125 158.871094 Z M 144.78125 179.441406 " fill-opacity="1" fill-rule="nonzero"/></g><g fill="#d696bc" fill-opacity="1"><g transform="translate(108.78306, 232.065674)"><g><path d="M 42.25 -40.78125 L 42.25 0 L 34.5 0 L 14.15625 -24.765625 L 14.15625 0 L 4.84375 0 L 4.84375 -40.78125 L 12.640625 -40.78125 L 32.921875 -16.015625 L 32.921875 -40.78125 Z M 42.25 -40.78125 "/></g></g></g><g fill="#d696bc" fill-opacity="1"><g transform="translate(150.146683, 232.065674)"><g><path d="M 16.84375 -31.8125 C 21.695312 -31.8125 25.421875 -30.65625 28.015625 -28.34375 C 30.617188 -26.03125 31.921875 -22.546875 31.921875 -17.890625 L 31.921875 0 L 23.421875 0 L 23.421875 -3.90625 C 21.710938 -0.988281 18.53125 0.46875 13.875 0.46875 C 11.457031 0.46875 9.363281 0.0625 7.59375 -0.75 C 5.832031 -1.570312 4.484375 -2.703125 3.546875 -4.140625 C 2.617188 -5.578125 2.15625 -7.207031 2.15625 -9.03125 C 2.15625 -11.945312 3.25 -14.238281 5.4375 -15.90625 C 7.632812 -17.570312 11.023438 -18.40625 15.609375 -18.40625 L 22.84375 -18.40625 C 22.84375 -20.394531 22.238281 -21.921875 21.03125 -22.984375 C 19.832031 -24.054688 18.023438 -24.59375 15.609375 -24.59375 C 13.941406 -24.59375 12.300781 -24.328125 10.6875 -23.796875 C 9.082031 -23.273438 7.710938 -22.566406 6.578125 -21.671875 L 3.328125 -28.03125 C 5.035156 -29.226562 7.082031 -30.15625 9.46875 -30.8125 C 11.851562 -31.476562 14.3125 -31.8125 16.84375 -31.8125 Z M 16.140625 -5.65625 C 17.691406 -5.65625 19.066406 -6.015625 20.265625 -6.734375 C 21.472656 -7.453125 22.332031 -8.507812 22.84375 -9.90625 L 22.84375 -13.109375 L 16.609375 -13.109375 C 12.878906 -13.109375 11.015625 -11.882812 11.015625 -9.4375 C 11.015625 -8.269531 11.46875 -7.347656 12.375 -6.671875 C 13.289062 -5.992188 14.546875 -5.65625 16.140625 -5.65625 Z M 16.140625 -5.65625 "/></g></g></g><g fill="#d696bc" fill-opacity="1"><g transform="translate(180.382706, 232.065674)"><g><path d="M 36.53125 -31.34375 L 36.53125 -5.25 C 36.53125 0.5 35.035156 4.769531 32.046875 7.5625 C 29.054688 10.363281 24.6875 11.765625 18.9375 11.765625 C 15.90625 11.765625 13.03125 11.394531 10.3125 10.65625 C 7.59375 9.925781 5.335938 8.859375 3.546875 7.453125 L 7.171875 0.9375 C 8.484375 2.019531 10.148438 2.878906 12.171875 3.515625 C 14.191406 4.160156 16.210938 4.484375 18.234375 4.484375 C 21.378906 4.484375 23.695312 3.773438 25.1875 2.359375 C 26.6875 0.941406 27.4375 -1.203125 27.4375 -4.078125 L 27.4375 -5.421875 C 25.070312 -2.816406 21.769531 -1.515625 17.53125 -1.515625 C 14.65625 -1.515625 12.023438 -2.144531 9.640625 -3.40625 C 7.253906 -4.664062 5.359375 -6.441406 3.953125 -8.734375 C 2.554688 -11.023438 1.859375 -13.664062 1.859375 -16.65625 C 1.859375 -19.65625 2.554688 -22.300781 3.953125 -24.59375 C 5.359375 -26.882812 7.253906 -28.660156 9.640625 -29.921875 C 12.023438 -31.179688 14.65625 -31.8125 17.53125 -31.8125 C 22.082031 -31.8125 25.539062 -30.316406 27.90625 -27.328125 L 27.90625 -31.34375 Z M 19.34375 -8.96875 C 21.75 -8.96875 23.71875 -9.675781 25.25 -11.09375 C 26.789062 -12.507812 27.5625 -14.363281 27.5625 -16.65625 C 27.5625 -18.957031 26.789062 -20.816406 25.25 -22.234375 C 23.71875 -23.648438 21.75 -24.359375 19.34375 -24.359375 C 16.9375 -24.359375 14.957031 -23.648438 13.40625 -22.234375 C 11.851562 -20.816406 11.078125 -18.957031 11.078125 -16.65625 C 11.078125 -14.363281 11.851562 -12.507812 13.40625 -11.09375 C 14.957031 -9.675781 16.9375 -8.96875 19.34375 -8.96875 Z M 19.34375 -8.96875 "/></g></g></g><g fill="#d696bc" fill-opacity="1"><g transform="translate(215.454287, 232.065674)"><g><path d="M 12.875 -27.203125 C 13.96875 -28.722656 15.4375 -29.867188 17.28125 -30.640625 C 19.125 -31.421875 21.25 -31.8125 23.65625 -31.8125 L 23.65625 -23.421875 C 22.644531 -23.503906 21.960938 -23.546875 21.609375 -23.546875 C 19.015625 -23.546875 16.976562 -22.816406 15.5 -21.359375 C 14.019531 -19.898438 13.28125 -17.710938 13.28125 -14.796875 L 13.28125 0 L 4.1875 0 L 4.1875 -31.34375 L 12.875 -31.34375 Z M 12.875 -27.203125 "/></g></g></g><g fill="#d696bc" fill-opacity="1"><g transform="translate(234.853995, 232.065674)"><g><path d="M 19.109375 0.46875 C 15.804688 0.46875 12.84375 -0.21875 10.21875 -1.59375 C 7.601562 -2.976562 5.554688 -4.894531 4.078125 -7.34375 C 2.597656 -9.789062 1.859375 -12.566406 1.859375 -15.671875 C 1.859375 -18.773438 2.597656 -21.550781 4.078125 -24 C 5.554688 -26.445312 7.601562 -28.359375 10.21875 -29.734375 C 12.84375 -31.117188 15.804688 -31.8125 19.109375 -31.8125 C 22.410156 -31.8125 25.363281 -31.117188 27.96875 -29.734375 C 30.570312 -28.359375 32.609375 -26.445312 34.078125 -24 C 35.554688 -21.550781 36.296875 -18.773438 36.296875 -15.671875 C 36.296875 -12.566406 35.554688 -9.789062 34.078125 -7.34375 C 32.609375 -4.894531 30.570312 -2.976562 27.96875 -1.59375 C 25.363281 -0.21875 22.410156 0.46875 19.109375 0.46875 Z M 19.109375 -6.984375 C 21.441406 -6.984375 23.351562 -7.769531 24.84375 -9.34375 C 26.34375 -10.925781 27.09375 -13.035156 27.09375 -15.671875 C 27.09375 -18.316406 26.34375 -20.425781 24.84375 -22 C 23.351562 -23.570312 21.441406 -24.359375 19.109375 -24.359375 C 16.773438 -24.359375 14.851562 -23.570312 13.34375 -22 C 11.832031 -20.425781 11.078125 -18.316406 11.078125 -15.671875 C 11.078125 -13.035156 11.832031 -10.925781 13.34375 -9.34375 C 14.851562 -7.769531 16.773438 -6.984375 19.109375 -6.984375 Z M 19.109375 -6.984375 "/></g></g></g><g fill="#d696bc" fill-opacity="1"><g transform="translate(267.303886, 232.065674)"><g><path d="M 36.125 -43.234375 L 36.125 0 L 27.4375 0 L 27.4375 -3.609375 C 25.1875 -0.890625 21.925781 0.46875 17.65625 0.46875 C 14.695312 0.46875 12.023438 -0.191406 9.640625 -1.515625 C 7.253906 -2.835938 5.378906 -4.722656 4.015625 -7.171875 C 2.660156 -9.617188 1.984375 -12.453125 1.984375 -15.671875 C 1.984375 -18.898438 2.660156 -21.734375 4.015625 -24.171875 C 5.378906 -26.617188 7.253906 -28.503906 9.640625 -29.828125 C 12.023438 -31.148438 14.695312 -31.8125 17.65625 -31.8125 C 21.65625 -31.8125 24.78125 -30.550781 27.03125 -28.03125 L 27.03125 -43.234375 Z M 19.234375 -6.984375 C 21.523438 -6.984375 23.425781 -7.769531 24.9375 -9.34375 C 26.445312 -10.925781 27.203125 -13.035156 27.203125 -15.671875 C 27.203125 -18.316406 26.445312 -20.425781 24.9375 -22 C 23.425781 -23.570312 21.523438 -24.359375 19.234375 -24.359375 C 16.898438 -24.359375 14.972656 -23.570312 13.453125 -22 C 11.941406 -20.425781 11.1875 -18.316406 11.1875 -15.671875 C 11.1875 -13.035156 11.941406 -10.925781 13.453125 -9.34375 C 14.972656 -7.769531 16.898438 -6.984375 19.234375 -6.984375 Z M 19.234375 -6.984375 "/></g></g></g><g fill="#d696bc" fill-opacity="1"><g transform="translate(301.909368, 232.065674)"><g><path d="M 34.90625 -15.5625 C 34.90625 -15.4375 34.84375 -14.617188 34.71875 -13.109375 L 11.015625 -13.109375 C 11.441406 -11.171875 12.453125 -9.632812 14.046875 -8.5 C 15.640625 -7.375 17.617188 -6.8125 19.984375 -6.8125 C 21.617188 -6.8125 23.066406 -7.054688 24.328125 -7.546875 C 25.585938 -8.035156 26.757812 -8.800781 27.84375 -9.84375 L 32.75 -4.609375 C 31.96875 -3.785156 31.171875 -3.082031 30.359375 -2.5 C 27.910156 -0.71875 26.21875 0.832031 25.28125 2.15625 C 24.351562 3.476562 23.890625 4.738281 23.890625 5.9375 C 23.890625 6.875 24.1875 7.601562 24.78125 8.125 C 25.382812 8.65625 26.210938 8.921875 27.265625 8.921875 C 28.515625 8.921875 29.660156 8.628906 30.703125 8.046875 L 32.046875 12.171875 C 31.304688 12.566406 30.398438 12.890625 29.328125 13.140625 C 28.265625 13.390625 27.207031 13.515625 26.15625 13.515625 C 23.675781 13.515625 21.71875 12.898438 20.28125 11.671875 C 18.84375 10.453125 18.125 8.816406 18.125 6.765625 C 18.125 5.671875 18.363281 4.570312 18.84375 3.46875 C 19.332031 2.363281 20.039062 1.34375 20.96875 0.40625 C 20.695312 0.445312 20.289062 0.46875 19.75 0.46875 C 16.21875 0.46875 13.09375 -0.21875 10.375 -1.59375 C 7.65625 -2.976562 5.554688 -4.894531 4.078125 -7.34375 C 2.597656 -9.789062 1.859375 -12.566406 1.859375 -15.671875 C 1.859375 -18.742188 2.585938 -21.507812 4.046875 -23.96875 C 5.503906 -26.4375 7.503906 -28.359375 10.046875 -29.734375 C 12.597656 -31.117188 15.445312 -31.8125 18.59375 -31.8125 C 21.65625 -31.8125 24.425781 -31.148438 26.90625 -29.828125 C 29.394531 -28.503906 31.347656 -26.609375 32.765625 -24.140625 C 34.191406 -21.679688 34.90625 -18.820312 34.90625 -15.5625 Z M 18.640625 -24.9375 C 16.585938 -24.9375 14.859375 -24.351562 13.453125 -23.1875 C 12.054688 -22.019531 11.203125 -20.425781 10.890625 -18.40625 L 26.34375 -18.40625 C 26.03125 -20.394531 25.171875 -21.976562 23.765625 -23.15625 C 22.367188 -24.34375 20.660156 -24.9375 18.640625 -24.9375 Z M 18.640625 -24.9375 "/></g></g></g><g fill="#d696bc" fill-opacity="1"><g transform="translate(108.78306, 178.499917)"><g><path d="M 24.46875 0.34375 C 20.425781 0.34375 16.765625 -0.554688 13.484375 -2.359375 C 10.203125 -4.160156 7.640625 -6.632812 5.796875 -9.78125 C 3.953125 -12.9375 3.03125 -16.472656 3.03125 -20.390625 C 3.03125 -24.316406 3.953125 -27.851562 5.796875 -31 C 7.640625 -34.144531 10.203125 -36.617188 13.484375 -38.421875 C 16.765625 -40.234375 20.425781 -41.140625 24.46875 -41.140625 C 28.507812 -41.140625 32.148438 -40.242188 35.390625 -38.453125 C 38.640625 -36.671875 41.195312 -34.195312 43.0625 -31.03125 C 44.925781 -27.863281 45.859375 -24.316406 45.859375 -20.390625 C 45.859375 -16.472656 44.925781 -12.929688 43.0625 -9.765625 C 41.195312 -6.597656 38.640625 -4.117188 35.390625 -2.328125 C 32.148438 -0.546875 28.507812 0.34375 24.46875 0.34375 Z M 24.46875 -3.5 C 27.695312 -3.5 30.609375 -4.222656 33.203125 -5.671875 C 35.804688 -7.128906 37.847656 -9.148438 39.328125 -11.734375 C 40.804688 -14.316406 41.546875 -17.203125 41.546875 -20.390625 C 41.546875 -23.578125 40.804688 -26.460938 39.328125 -29.046875 C 37.847656 -31.628906 35.804688 -33.648438 33.203125 -35.109375 C 30.609375 -36.566406 27.695312 -37.296875 24.46875 -37.296875 C 21.25 -37.296875 18.328125 -36.566406 15.703125 -35.109375 C 13.078125 -33.648438 11.015625 -31.628906 9.515625 -29.046875 C 8.023438 -26.460938 7.28125 -23.578125 7.28125 -20.390625 C 7.28125 -17.203125 8.023438 -14.316406 9.515625 -11.734375 C 11.015625 -9.148438 13.078125 -7.128906 15.703125 -5.671875 C 18.328125 -4.222656 21.25 -3.5 24.46875 -3.5 Z M 24.46875 -3.5 "/></g></g></g><g fill="#d696bc" fill-opacity="1"><g transform="translate(151.959165, 178.499917)"><g><path d="M 33.734375 -43.234375 L 33.734375 0 L 29.78125 0 L 29.78125 -6.0625 C 28.53125 -4 26.882812 -2.421875 24.84375 -1.328125 C 22.8125 -0.242188 20.515625 0.296875 17.953125 0.296875 C 15.078125 0.296875 12.472656 -0.363281 10.140625 -1.6875 C 7.804688 -3.007812 5.976562 -4.851562 4.65625 -7.21875 C 3.34375 -9.59375 2.6875 -12.296875 2.6875 -15.328125 C 2.6875 -18.359375 3.34375 -21.054688 4.65625 -23.421875 C 5.976562 -25.796875 7.804688 -27.628906 10.140625 -28.921875 C 12.472656 -30.222656 15.078125 -30.875 17.953125 -30.875 C 20.429688 -30.875 22.671875 -30.359375 24.671875 -29.328125 C 26.671875 -28.304688 28.3125 -26.804688 29.59375 -24.828125 L 29.59375 -43.234375 Z M 18.296875 -3.375 C 20.429688 -3.375 22.363281 -3.867188 24.09375 -4.859375 C 25.820312 -5.847656 27.179688 -7.253906 28.171875 -9.078125 C 29.160156 -10.910156 29.65625 -12.992188 29.65625 -15.328125 C 29.65625 -17.648438 29.160156 -19.722656 28.171875 -21.546875 C 27.179688 -23.378906 25.820312 -24.789062 24.09375 -25.78125 C 22.363281 -26.769531 20.429688 -27.265625 18.296875 -27.265625 C 16.117188 -27.265625 14.164062 -26.769531 12.4375 -25.78125 C 10.707031 -24.789062 9.347656 -23.378906 8.359375 -21.546875 C 7.367188 -19.722656 6.875 -17.648438 6.875 -15.328125 C 6.875 -12.992188 7.367188 -10.910156 8.359375 -9.078125 C 9.347656 -7.253906 10.707031 -5.847656 12.4375 -4.859375 C 14.164062 -3.867188 16.117188 -3.375 18.296875 -3.375 Z M 18.296875 -3.375 "/></g></g></g><g fill="#d696bc" fill-opacity="1"><g transform="translate(185.754238, 178.499917)"><g><path d="M 21.5625 -30.875 C 24.4375 -30.875 27.035156 -30.222656 29.359375 -28.921875 C 31.691406 -27.628906 33.519531 -25.796875 34.84375 -23.421875 C 36.164062 -21.054688 36.828125 -18.359375 36.828125 -15.328125 C 36.828125 -12.296875 36.164062 -9.59375 34.84375 -7.21875 C 33.519531 -4.851562 31.691406 -3.007812 29.359375 -1.6875 C 27.035156 -0.363281 24.4375 0.296875 21.5625 0.296875 C 19 0.296875 16.695312 -0.242188 14.65625 -1.328125 C 12.613281 -2.421875 10.972656 -4 9.734375 -6.0625 L 9.734375 0 L 5.765625 0 L 5.765625 -43.234375 L 9.90625 -43.234375 L 9.90625 -24.828125 C 11.1875 -26.804688 12.828125 -28.304688 14.828125 -29.328125 C 16.828125 -30.359375 19.070312 -30.875 21.5625 -30.875 Z M 21.265625 -3.375 C 23.398438 -3.375 25.34375 -3.867188 27.09375 -4.859375 C 28.84375 -5.847656 30.210938 -7.253906 31.203125 -9.078125 C 32.191406 -10.910156 32.6875 -12.992188 32.6875 -15.328125 C 32.6875 -17.648438 32.191406 -19.722656 31.203125 -21.546875 C 30.210938 -23.378906 28.84375 -24.789062 27.09375 -25.78125 C 25.34375 -26.769531 23.398438 -27.265625 21.265625 -27.265625 C 19.085938 -27.265625 17.132812 -26.769531 15.40625 -25.78125 C 13.675781 -24.789062 12.316406 -23.378906 11.328125 -21.546875 C 10.335938 -19.722656 9.84375 -17.648438 9.84375 -15.328125 C 9.84375 -12.992188 10.335938 -10.910156 11.328125 -9.078125 C 12.316406 -7.253906 13.675781 -5.847656 15.40625 -4.859375 C 17.132812 -3.867188 19.085938 -3.375 21.265625 -3.375 Z M 21.265625 -3.375 "/></g></g></g><g fill="#d696bc" fill-opacity="1"><g transform="translate(219.549306, 178.499917)"><g><path d="M 5.765625 -30.640625 L 9.90625 -30.640625 L 9.90625 0 L 5.765625 0 Z M 7.859375 -37.34375 C 7.003906 -37.34375 6.285156 -37.632812 5.703125 -38.21875 C 5.117188 -38.800781 4.828125 -39.5 4.828125 -40.3125 C 4.828125 -41.09375 5.117188 -41.773438 5.703125 -42.359375 C 6.285156 -42.941406 7.003906 -43.234375 7.859375 -43.234375 C 8.710938 -43.234375 9.429688 -42.953125 10.015625 -42.390625 C 10.597656 -41.828125 10.890625 -41.15625 10.890625 -40.375 C 10.890625 -39.519531 10.597656 -38.800781 10.015625 -38.21875 C 9.429688 -37.632812 8.710938 -37.34375 7.859375 -37.34375 Z M 7.859375 -37.34375 "/></g></g></g><g fill="#d696bc" fill-opacity="1"><g transform="translate(229.513, 178.499917)"><g><path d="M 32.453125 -14.046875 L 6.8125 -14.046875 C 7.050781 -10.859375 8.273438 -8.28125 10.484375 -6.3125 C 12.703125 -4.351562 15.5 -3.375 18.875 -3.375 C 20.78125 -3.375 22.53125 -3.710938 24.125 -4.390625 C 25.71875 -5.078125 27.097656 -6.082031 28.265625 -7.40625 L 30.59375 -4.71875 C 29.226562 -3.082031 27.523438 -1.835938 25.484375 -0.984375 C 23.453125 -0.128906 21.210938 0.296875 18.765625 0.296875 C 15.617188 0.296875 12.832031 -0.375 10.40625 -1.71875 C 7.976562 -3.0625 6.082031 -4.914062 4.71875 -7.28125 C 3.363281 -9.65625 2.6875 -12.335938 2.6875 -15.328125 C 2.6875 -18.316406 3.332031 -20.992188 4.625 -23.359375 C 5.925781 -25.734375 7.710938 -27.578125 9.984375 -28.890625 C 12.265625 -30.210938 14.820312 -30.875 17.65625 -30.875 C 20.488281 -30.875 23.03125 -30.210938 25.28125 -28.890625 C 27.539062 -27.578125 29.3125 -25.742188 30.59375 -23.390625 C 31.875 -21.046875 32.515625 -18.359375 32.515625 -15.328125 Z M 17.65625 -27.328125 C 14.695312 -27.328125 12.21875 -26.382812 10.21875 -24.5 C 8.21875 -22.613281 7.082031 -20.15625 6.8125 -17.125 L 28.546875 -17.125 C 28.273438 -20.15625 27.140625 -22.613281 25.140625 -24.5 C 23.140625 -26.382812 20.644531 -27.328125 17.65625 -27.328125 Z M 17.65625 -27.328125 "/></g></g></g><g fill="#d696bc" fill-opacity="1"><g transform="translate(258.996268, 178.499917)"><g><path d="M 9.734375 -24.640625 C 10.703125 -26.703125 12.144531 -28.253906 14.0625 -29.296875 C 15.988281 -30.347656 18.367188 -30.875 21.203125 -30.875 L 21.203125 -26.859375 L 20.21875 -26.921875 C 16.988281 -26.921875 14.460938 -25.925781 12.640625 -23.9375 C 10.816406 -21.957031 9.90625 -19.179688 9.90625 -15.609375 L 9.90625 0 L 5.765625 0 L 5.765625 -30.640625 L 9.734375 -30.640625 Z M 9.734375 -24.640625 "/></g></g></g><g fill="#d696bc" fill-opacity="1"><g transform="translate(276.651285, 178.499917)"><g><path d="M 27.390625 -3.4375 L 27.390625 0 L 2.453125 0 L 2.453125 -2.734375 L 21.734375 -27.15625 L 2.796875 -27.15625 L 2.796875 -30.640625 L 27.03125 -30.640625 L 27.03125 -27.90625 L 7.75 -3.4375 Z M 27.390625 -3.4375 "/></g></g></g><path stroke-linecap="butt" transform="matrix(0, -0.75, 0.75, 0, 104.279251, 247.459906)" fill="none" stroke-linejoin="miter" d="M -0.00137513 2.997457 L 162.821552 2.997457 " stroke="#d696bc" stroke-width="6" stroke-opacity="1" stroke-miterlimit="4"/></svg>