<?xml version="1.0" standalone="no"?>
<!DOCTYPE svg PUBLIC "-//W3C//DTD SVG 20010904//EN"
 "http://www.w3.org/TR/2001/REC-SVG-20010904/DTD/svg10.dtd">
<svg version="1.0" xmlns="http://www.w3.org/2000/svg"
 width="190.000000pt" height="190.000000pt" viewBox="0 0 190.000000 190.000000"
 preserveAspectRatio="xMidYMid meet">
<metadata>
Created by potrace 1.14, written by Peter Selinger 2001-2017
</metadata>
<g transform="translate(0.000000,190.000000) scale(0.100000,-0.100000)"
fill="#000000" stroke="none">
<path d="M543 1890 c-13 -5 -44 -11 -70 -14 -27 -2 -49 -5 -50 -6 -5 -4 -23
-8 -49 -9 -14 0 -22 -5 -19 -11 3 -5 0 -10 -9 -10 -8 0 -17 -6 -19 -12 -4 -10
-6 -10 -6 -1 -1 9 -13 7 -39 -7 l-39 -20 22 -108 c32 -152 56 -285 52 -289 -2
-1 -30 -8 -63 -14 -32 -7 -66 -17 -74 -24 -8 -7 -20 -10 -27 -8 -7 2 -10 -3
-8 -14 2 -10 4 -25 4 -34 1 -9 12 -32 25 -52 13 -19 22 -38 19 -40 -2 -3 4 -4
13 -4 12 2 20 -8 25 -31 4 -18 15 -42 25 -53 10 -12 18 -31 16 -44 -2 -16 14
-44 57 -93 34 -39 65 -74 71 -77 6 -4 19 -24 31 -46 17 -35 19 -47 10 -95 -10
-53 -62 -160 -85 -176 -6 -4 -7 -8 -1 -8 5 0 -11 -20 -35 -45 -24 -24 -47 -42
-51 -39 -4 2 -11 -1 -14 -6 -4 -6 -17 -16 -28 -21 -12 -5 -40 -20 -62 -33 -51
-30 -145 -76 -156 -76 -5 0 -9 -83 -9 -185 l0 -185 951 0 c927 0 950 0 937 19
-14 20 -88 105 -155 179 -24 26 -43 53 -43 60 0 7 -6 15 -14 18 -7 3 -24 28
-37 57 -13 29 -36 66 -51 82 -16 17 -31 39 -34 50 -10 30 -55 96 -86 128 -27
26 -45 31 -98 28 -214 -15 -346 17 -439 107 -63 62 -67 75 -36 129 14 25 25
57 25 72 0 15 11 36 25 50 25 23 35 81 14 81 -6 0 -8 -8 -4 -19 5 -17 -19 -50
-30 -40 -2 3 -5 35 -7 72 -1 37 -7 67 -11 67 -5 0 -4 6 2 14 8 10 7 23 -5 51
-11 28 -13 44 -6 60 6 13 7 28 1 36 -15 24 -10 47 12 54 35 11 43 53 23 113
-10 28 -22 52 -26 52 -4 0 -23 -14 -43 -31 -20 -18 -37 -30 -38 -28 -10 15
-50 160 -62 224 -16 87 -35 199 -35 206 0 12 -158 10 -187 -1z"/>
</g>
</svg>
