<svg width="84" height="107" viewBox="0 0 84 107" fill="none" xmlns="http://www.w3.org/2000/svg">
<mask id="mask0_2952_24450" style="mask-type:luminance" maskUnits="userSpaceOnUse" x="0" y="0" width="84" height="83">
<path d="M84 0.774872H0V82.4587H84V0.774872Z" fill="white"/>
</mask>
<g mask="url(#mask0_2952_24450)">
<path d="M42.5628 12.8081C40.6449 12.7088 39.9476 13.7494 38.5624 14.8719C37.2798 15.9111 35.9666 16.9167 34.6773 17.9485L16.8148 32.0763C14.2816 34.0749 11.0123 37.0245 8.40025 38.6799C2.97065 42.1211 -2.68332 35.3841 1.42887 30.5727C2.00988 29.8929 2.76394 29.3424 3.4592 28.785L34.4558 4.31035C36.7635 2.48997 38.4442 1.06285 41.5349 0.824027C44.8116 0.53352 47.1466 2.4117 49.5229 4.30451L79.2804 27.7756C80.6979 28.8913 82.3628 29.9058 83.2465 31.5346C85.7751 36.1954 81.4308 41.1452 76.7168 39.2622C74.8738 38.5259 71.6935 35.5814 69.9962 34.2397L46.1757 15.3942C45.078 14.5262 43.9313 13.2298 42.5628 12.8081Z" fill="#46CACA"/>
</g>
<path d="M42.0452 82.4507L22.0266 82.4534C16.1437 82.4529 11.4685 81.2749 8.95077 75.0397C7.8902 72.4132 8.13008 69.4292 8.12999 66.6547L8.13023 51.2978C8.12999 48.6728 7.6864 43.8911 9.87876 41.9767C10.6682 41.2874 11.5956 40.697 12.4288 40.0522L37.6308 20.3826C38.8867 19.3968 40.5452 17.8946 42.0058 17.3188C43.039 17.3247 48.1124 21.6922 49.1128 22.4753L70.4881 39.1981C73.8949 41.8092 75.8338 42.3688 75.8698 47.2732L75.8725 68.4175C75.8725 70.117 75.9581 71.8691 75.5738 73.5356C73.848 81.0122 68.0853 82.4561 61.5994 82.4529L42.0452 82.4507ZM41.3564 42.0969C36.278 42.5705 31.8939 45.9601 30.8646 51.0416C30.6067 52.3153 30.6476 53.5961 30.6505 54.8876L30.6571 71.7254L42.8522 71.7291C46.3667 71.727 49.8898 71.7803 53.4032 71.7146L53.4075 55.9154C53.4075 54.1563 53.4576 52.3132 53.0303 50.596C51.7878 45.6028 46.6078 41.5048 41.3564 42.0969Z" fill="black"/>
<path d="M9.67794 89.8779H11.2114L9.04457 95.856H7.37782L6.03331 92.1447L4.64435 95.856H2.97759L0.821926 89.8779H2.45534L3.86653 93.9225L5.33327 89.8779H6.80001L8.22231 93.9225L9.67794 89.8779ZM16.0319 89.8779H17.6987L14.9985 96.2226C14.4207 97.6672 13.5985 98.1005 12.5206 98.1005C11.9095 98.1005 11.2428 97.9005 10.8539 97.556L11.4872 96.3226C11.7539 96.556 12.1206 96.7004 12.4651 96.7004C12.9429 96.7004 13.2095 96.4893 13.4429 95.956L13.4651 95.9004L10.8761 89.8779H12.6651L14.3429 93.9336L16.0319 89.8779ZM22.6546 89.8779H24.2991V94.8559C24.2991 97.0782 23.099 98.1005 20.9434 98.1005C19.81 98.1005 18.7099 97.8227 18.0099 97.2783L18.6988 96.0337C19.2099 96.4449 20.0433 96.7116 20.81 96.7116C22.0323 96.7116 22.5657 96.156 22.5657 95.0781V94.8226C22.1101 95.3226 21.4545 95.5671 20.6767 95.5671C19.021 95.5671 17.6876 94.4225 17.6876 92.678C17.6876 90.9335 19.021 89.789 20.6767 89.789C21.5101 89.789 22.199 90.0668 22.6546 90.6446V89.8779ZM21.0211 94.1448C21.9323 94.1448 22.5879 93.5558 22.5879 92.678C22.5879 91.8002 21.9323 91.2113 21.0211 91.2113C20.11 91.2113 19.4433 91.8002 19.4433 92.678C19.4433 93.5558 20.11 94.1448 21.0211 94.1448ZM28.6459 95.9449C26.7458 95.9449 25.3569 94.667 25.3569 92.8669C25.3569 91.0668 26.7458 89.789 28.6459 89.789C30.546 89.789 31.9239 91.0668 31.9239 92.8669C31.9239 94.667 30.546 95.9449 28.6459 95.9449ZM28.6459 94.5226C29.5126 94.5226 30.1682 93.9003 30.1682 92.8669C30.1682 91.8335 29.5126 91.2113 28.6459 91.2113C27.7792 91.2113 27.1125 91.8335 27.1125 92.8669C27.1125 93.9003 27.7792 94.5226 28.6459 94.5226ZM37.3272 87.6111H39.0606V95.856H37.405V95.167C36.9716 95.6893 36.3383 95.9449 35.5382 95.9449C33.8492 95.9449 32.5492 94.7448 32.5492 92.8669C32.5492 90.989 33.8492 89.789 35.5382 89.789C36.2716 89.789 36.8938 90.0223 37.3272 90.5112V87.6111ZM35.8382 94.5226C36.6938 94.5226 37.3605 93.9003 37.3605 92.8669C37.3605 91.8335 36.6938 91.2113 35.8382 91.2113C34.9715 91.2113 34.3048 91.8335 34.3048 92.8669C34.3048 93.9003 34.9715 94.5226 35.8382 94.5226ZM44.1874 89.789C45.5985 89.789 46.6653 90.6112 46.6653 92.4336V95.856H44.9318V92.7002C44.9318 91.7335 44.4874 91.2891 43.7207 91.2891C42.8873 91.2891 42.2873 91.8002 42.2873 92.9002V95.856H40.5538V89.8779H42.2095V90.5779C42.6762 90.0668 43.3762 89.789 44.1874 89.789ZM52.2838 89.8779H53.9505L51.2504 96.2226C50.6726 97.6672 49.8503 98.1005 48.7725 98.1005C48.1613 98.1005 47.4946 97.9005 47.1057 97.556L47.7391 96.3226C48.0058 96.556 48.3725 96.7004 48.7169 96.7004C49.1947 96.7004 49.4614 96.4893 49.6948 95.956L49.717 95.9004L47.128 89.8779H48.9169L50.5948 93.9336L52.2838 89.8779ZM61.9383 87.6111H63.6717V95.856H62.0161V95.167C61.5827 95.6893 60.9493 95.9449 60.1493 95.9449C58.4603 95.9449 57.1602 94.7448 57.1602 92.8669C57.1602 90.989 58.4603 89.789 60.1493 89.789C60.8827 89.789 61.5049 90.0223 61.9383 90.5112V87.6111ZM60.4493 94.5226C61.3049 94.5226 61.9716 93.9003 61.9716 92.8669C61.9716 91.8335 61.3049 91.2113 60.4493 91.2113C59.5826 91.2113 58.9159 91.8335 58.9159 92.8669C58.9159 93.9003 59.5826 94.5226 60.4493 94.5226ZM68.0095 95.9449C66.1094 95.9449 64.7204 94.667 64.7204 92.8669C64.7204 91.0668 66.1094 89.789 68.0095 89.789C69.9096 89.789 71.2874 91.0668 71.2874 92.8669C71.2874 94.667 69.9096 95.9449 68.0095 95.9449ZM68.0095 94.5226C68.8762 94.5226 69.5318 93.9003 69.5318 92.8669C69.5318 91.8335 68.8762 91.2113 68.0095 91.2113C67.1428 91.2113 66.4761 91.8335 66.4761 92.8669C66.4761 93.9003 67.1428 94.5226 68.0095 94.5226ZM79.9909 89.789C81.4132 89.789 82.4355 90.6112 82.4355 92.4336V95.856H80.7021V92.7002C80.7021 91.7335 80.2687 91.2891 79.5687 91.2891C78.7909 91.2891 78.2464 91.7891 78.2464 92.8558V95.856H76.513V92.7002C76.513 91.7335 76.1019 91.2891 75.3796 91.2891C74.6129 91.2891 74.0684 91.7891 74.0684 92.8558V95.856H72.335V89.8779H73.9906V90.5668C74.4351 90.0557 75.1018 89.789 75.8685 89.789C76.7019 89.789 77.413 90.1112 77.8353 90.7668C78.3131 90.1557 79.0909 89.789 79.9909 89.789Z" fill="black"/>
</svg>
